<?xml version="1.0" encoding="utf-8"?>
<!-- Generator: Adobe Illustrator 27.5.0, SVG Export Plug-In . SVG Version: 6.00 Build 0)  -->
<svg version="1.1" id="Layer_2_00000000941366700786992710000009107745595871009680_"
	 xmlns="http://www.w3.org/2000/svg" xmlns:xlink="http://www.w3.org/1999/xlink" x="0px" y="0px" viewBox="0 0 125.6 127.7"
	 style="enable-background:new 0 0 125.6 127.7;" xml:space="preserve">
<style type="text/css">
	.st0{fill:#0055A5;stroke:#0055A5;stroke-width:2;stroke-miterlimit:10;}
</style>
<g>
	<path class="st0" d="M105.4,24.5c-4.6-5-9.7-9.2-15.6-12.2C83.5,9,76.9,6.9,69.9,6c-0.1,0.4-0.1,0.6-0.1,0.8c0,2.2-0.1,2.4-2.3,3.1
		c-1.3,0.4-2.5,0.9-3.8,1.1c-3,0.5-5.4,2.1-7.8,3.9c-1.8,1.3-3.3,1.4-5.3,0.3c-2.9-1.7-6-3-8.9-4.6c-0.9-0.5-1.7-0.3-2.6,0.1
		c-6.3,2.9-12,6.7-17,11.6c-3.7,3.7-6.9,7.7-9.6,12.2c-0.2,0.3-0.1,0.8,0,1.1c2.2,3.5,4.4,7,6.6,10.5c0.8,1.2,0.6,1.9-0.5,3.1
		c-1.5,1.5-3,3.1-4.6,4.6c-0.6,0.6-0.8,1.2-0.7,2c0.1,2.2,0,4.3-0.1,6.5c-0.1,1.3-0.7,1.8-2,1.9c-1.7,0-3.3,0-5,0
		c-1.4,0-1.4,0-1.3,1.4c0.4,4.9,1,9.7,2.6,14.4c0,0.1,0.1,0.3,0.1,0.4c-1,0.3-2,0.7-3,1c-0.5,0.1-1,0.2-1.1-0.5
		C2.9,77.1,2.1,73.6,1.5,70C0.9,66.2,1,62.4,1.3,58.6c0.4-4.9,1.3-9.7,2.9-14.4c4-11.5,10.6-21.3,20-29C31.1,9.4,39,5.7,47.7,3.4
		c5.9-1.5,12-2.3,18.1-1.9c14,1,26.3,5.9,37.1,14.9c9.8,8.2,15.8,18.5,19.3,30.6c1.4,5,2.2,10.1,2.2,15.2c0,6.8-1,13.5-3.3,20
		c-2.6,7.4-6.3,14.2-11.3,20.3c-6.9,8.6-15.8,14.1-25.9,18.1c-7.6,3-15.4,4.1-23.5,3.8c-6.1-0.2-12-1.3-17.8-3.3
		c-0.7-0.2-1.6-0.2-2.3,0c-4.2,1.4-8.3,3.1-12.5,4.2c-5.2,1.3-10.4,1.8-15.7,0c-5.9-2-9.2-6.2-10.5-12.1c-1.2-5.8-0.2-11.5,1.6-17
		c2.3-7.5,5.9-14.4,9.9-21.1c4.4-7.3,9.4-14.2,14.8-20.7c0.5-0.6,1-1.3,1.6-2.1c1.1,0.9,2.1,1.7,3,2.5c-2.4,2.9-4.8,5.7-7,8.6
		C19.8,71.1,14.7,79,10.8,87.7c-2.5,5.5-4.5,11.1-5.3,17.1c-0.4,3.1-0.7,6.3,0.4,9.4c1.6,4.7,4.9,7.3,9.7,8.1
		c6.2,1.1,12.2-0.4,18-2.5c0.9-0.3,1.7-0.6,2.6-0.9c0.1,0,0.1-0.1,0.4-0.4c-5.2-2.4-10-5.3-14.1-9.1c-4.1-3.9-7.8-8.1-11.4-12.8
		c1-0.7,2-1.4,3-1.9c0.2-0.1,0.7,0.2,1,0.5c1.3,1.6,2.5,3.3,3.8,4.9c5.5,6.5,12.1,11.5,19.9,15.1c4.3,2,8.8,3.6,13.5,4.4
		c6.2,1.1,12.5,1.4,18.8,0.5c9.5-1.3,17.9-5.2,25.7-10.6c9.6-6.7,16.4-15.7,20.3-26.7c1.7-4.6,2.8-9.4,3.2-14.3
		c0.2-2.5,0.1-5,0.2-7.5c0-1-0.4-1.2-1.3-1.2c-2.2,0-4.4-0.1-6.6,0c-1.3,0-2-0.5-2.7-1.6c-2.3-4.1-4.6-8.2-6.9-12.2
		c-0.2-0.3-0.7-0.6-1-0.6c-3.1,0-6.2-0.1-9.3,0c-0.5,0-1.1,0.4-1.3,0.8c-1,1.4-1.9,2.8-2.7,4.2c-0.5,0.8-1.1,1.1-2,1.1
		c-2.6,0-5.3,0-7.9,0c-1.5,0-2-0.5-2-2c0-4.6,0-9.1,0-13.7c0-2.1,0.7-2.8,2.8-2.8c3.3,0,6.6,0,9.8,0c0.8,0,1.3-0.2,1.9-0.8
		c2-2.1,4.1-4.2,6.1-6.3c0.9-0.9,1.9-1.3,3.2-1.3C102.1,24.6,103.7,24.5,105.4,24.5z M86.1,36.9c-1.6,0-3.2,0-4.8,0
		c-0.7,0-1,0.3-1,1c0,2.8,0,5.6,0,8.5c0,0.8,0.3,1.1,1.1,1.1c1.1,0,2.3,0.1,3.4,0c0.5-0.1,1.2-0.4,1.5-0.9c1-1.2,1.8-2.5,2.7-3.9
		c0.7-1.1,1.5-1.5,2.8-1.5c3.7,0,7.3,0.1,11,0c1.3,0,2.1,0.5,2.8,1.6c2.2,4,4.6,8,6.8,11.9c0.4,0.8,1,1.2,1.9,1.1
		c1.5-0.1,3.1-0.1,4.6,0c0.9,0,1.1-0.3,0.9-1.1c-1.5-9.2-4.7-17.8-10.4-25.4c-0.3-0.4-0.9-0.8-1.3-0.8c-2.4-0.1-4.9,0-7.3,0.1
		c-0.5,0-1.1,0.4-1.5,0.8c-2.3,2.3-4.6,4.6-7,6.9c-0.4,0.4-1.1,0.6-1.7,0.7C89.1,37,87.6,36.9,86.1,36.9z M10.4,39
		c-0.2,0.3-0.3,0.4-0.3,0.4C7.2,45.6,5.8,52.2,5.2,59c-0.1,0.6,0.2,0.8,0.8,0.9c1,0,1.9,0.1,2.9,0.1c0.6,0,0.7-0.3,0.7-0.9
		c0-1.8-0.1-3.6,0-5.3c0-0.6,0.3-1.3,0.7-1.7c1.5-1.5,3-3,4.6-4.5c0.4-0.4,0.5-0.7,0.2-1.2c-1.2-1.9-2.4-3.9-3.7-5.8
		C11.1,40.1,10.8,39.6,10.4,39z M66.2,6.2c0-0.1,0-0.3,0-0.4c-0.5-0.1-1-0.3-1.6-0.3c-4.4,0-8.8,0.4-13.2,1.3
		c-1.8,0.3-3.6,0.8-5.7,1.2c0.5,0.4,0.7,0.6,0.9,0.7c1.7,0.8,3.5,1.6,5.2,2.5c0.9,0.5,1.7,0.5,2.5-0.2c2.9-2.3,6.2-3.8,9.9-4.3
		C65,6.6,65.6,6.4,66.2,6.2z"/>
	<path class="st0" d="M50.5,44.8c-1.2,1.1-2.2,2-3.2,3c-0.1,0.1-0.1,0.5,0,0.7c0.5,2.1,1,4.3,1.6,6.4c0.2,0.9,0,1.6-0.6,2.3
		c-1.3,1.3-2.6,2.6-3.9,3.9c-1.1,1.1-2.3,0.9-3.1-0.4c-1.5-2.5-3.1-5.1-4.6-7.6c-0.8-1.4-1.8-2.4-3.2-3.2c-2.5-1.4-5-3-7.4-4.5
		c-0.4-0.2-0.8-0.5-1.1-0.8c-0.8-0.8-0.9-1.8-0.1-2.6c1.4-1.5,2.9-2.9,4.4-4.4c0.5-0.5,1.1-0.7,1.9-0.5c2,0.6,4.1,1,6.1,1.6
		c0.7,0.2,1.2,0.1,1.7-0.5c0.6-0.7,1.3-1.3,1.9-1.9c0.7-0.7,0.7-0.9-0.2-1.3c-4.4-2-8.8-3.9-13.3-5.9c-0.6-0.3-1.3-0.6-1.9-0.9
		c-1.4-0.8-1.7-2.2-0.5-3.4c1.3-1.3,2.7-2.6,4-3.9c0.6-0.6,1.4-0.7,2.2-0.4c5.9,1.8,11.8,3.5,17.7,5.3c1.3,0.4,2.2,0.3,3.2-0.8
		c1.8-1.9,3.6-3.7,5.6-5.3c2.7-2.3,6-3.2,9.4-3.6c1.9-0.2,2.7,0.7,2.7,2.5c0,4.6-1.9,8.4-4.9,11.6c-1.5,1.7-3.2,3.2-4.7,4.9
		c-0.2,0.2-0.3,0.8-0.2,1.2c1.8,6,3.6,12.1,5.4,18.1c0.5,1.5,0.3,2.7-1,3.7C63.1,59,62,60,60.9,61c-1.4,1.2-2.7,1-3.5-0.7
		c-1.3-2.7-2.4-5.5-3.6-8.2C52.8,50.1,52,48,51,45.9C50.9,45.6,50.7,45.3,50.5,44.8z M43.2,56.7c0.6-0.4,1.1-0.8,1.5-1.2
		c0.2-0.2,0.2-0.5,0.2-0.7c-0.6-2.1-1.1-4.3-1.8-6.4c-0.3-0.9-0.1-1.6,0.6-2.3c1.2-1.2,2.4-2.5,3.6-3.7c4.8-4.7,9.5-9.5,14.3-14.2
		c1.9-1.9,3.3-4,3.9-6.6c0.1-0.3,0-0.6,0-0.9c-0.3,0-0.5,0-0.8,0.1c-2.7,0.8-4.9,2.2-6.9,4.2C52.2,30.5,46.4,36.2,40.8,42
		c-1,1-2.1,1.2-3.4,0.9c-1.8-0.4-3.6-1-5.4-1.3c-0.6-0.1-1.4,0.1-2,0.4c-0.7,0.3-0.7,0.8,0,1.3c2.5,1.5,4.9,2.9,7.3,4.5
		c0.5,0.3,0.9,0.8,1.2,1.2C40.1,51.5,41.6,54,43.2,56.7z M56.6,38.8c-0.6,0.5-1.1,0.9-1.5,1.3c-1.6,1.5-1.6,1.5-0.7,3.5
		c0,0.1,0.1,0.2,0.1,0.3c1.6,3.8,3.2,7.6,4.8,11.4c0.5,1.1,1.1,1.3,1.8,0.4c0.2-0.2,0.2-0.8,0.1-1.1c-1-3.4-2-6.8-3-10.2
		C57.8,42.5,57.2,40.7,56.6,38.8z M29.7,25.3c0,0.1,0,0.3,0,0.4c0.5,0.3,0.9,0.6,1.4,0.8c3.8,1.7,7.6,3.5,11.4,5.2
		c2.4,1.1,1.9,1,3.6-0.7c0.2-0.2,0.4-0.3,0.6-0.5c0.6-0.6,0.6-0.9-0.2-1.1c-4.9-1.5-9.8-3-14.8-4.4C31,24.9,30.4,25.2,29.7,25.3z"/>
	<path class="st0" d="M80.5,92.4c0-3.5,0-7.1,0-10.6c0-0.9-0.3-1.1-1.2-1.1c-1.7,0-3.3,0-5,0c-1.5,0-2-0.5-2-2c0-5.4,0-10.8,0-16.2
		c0-1.7,0.6-2.3,2.3-2.4c2.4,0,4.8-0.1,7.2-0.1c4.3,0,8.5,0,12.8,0c1.2,0,1.9,0.5,2.4,1.6c1.5,3.2,3.2,6.3,4.7,9.4
		c0.6,1.1,1.3,1.6,2.6,1.6c1.6-0.1,3.2,0,4.8,0c2.4,0.1,3.1,1.5,1.8,3.5c-2.4,3.6-4.9,7.2-7.3,10.8c-0.3,0.4-0.4,0.9-0.4,1.3
		c0,2.3,0,4.7,0,7c0,0.6-0.3,1.3-0.7,1.7c-2.5,2.7-5.2,5.3-7.7,7.9c-0.6,0.6-1.2,0.9-2.1,0.9c-3.2,0-6.3,0-9.5,0
		c-1.8,0-2.6-0.7-2.6-2.6C80.5,99.5,80.6,95.9,80.5,92.4C80.6,92.4,80.5,92.4,80.5,92.4z M106.2,76.6c-0.6-0.1-0.9-0.2-1.3-0.2
		c-1.3,0-2.5,0.1-3.8,0c-0.5,0-1.1-0.4-1.3-0.8c-1.8-3.6-3.6-7.2-5.4-10.8c-0.3-0.6-0.6-0.9-1.2-0.9c-5.4,0-10.9,0-16.3,0
		c-0.3,0-0.7,0.5-0.7,0.7c0,3.7,0,7.3,0.1,11c0,0.8,0.4,1.1,1.1,1.1c1.5,0,2.9,0,4.4,0c2.3,0,2.7,0.5,2.7,2.7c0,7,0,14,0,21
		c0,1,0.3,1.4,1.4,1.4c1.7-0.1,3.5,0,5.2,0c0.6,0,1.4-0.3,1.9-0.7c2-1.9,3.9-3.9,5.8-5.9c0.4-0.4,0.6-1.1,0.6-1.7
		c0.1-1.5,0.1-3,0-4.5c-0.1-1.8,0.5-3.2,1.5-4.6C102.7,81.9,104.3,79.4,106.2,76.6z"/>
	<path class="st0" d="M30.3,79.7c0-2.2,0-4.4,0-6.6c0-1.7,0.9-2.6,2.7-2.6c3.1,0,6.1,0,9.2,0c1,0,1.8,0.3,2.4,1
		c1.4,1.4,2.8,2.7,4.1,4c0.8,0.9,1.8,1.2,3,1.2c3.1,0,6.3,0,9.4,0c1.9,0,2.5,0.7,2.4,2.6c0,3.1,0,6.3,0,9.4c0,1-0.3,1.6-1.1,2.2
		c-3,2.4-5.9,4.8-8.9,7.3c-0.3,0.2-0.5,0.8-0.5,1.2c-0.1,1.5,0,2.9-0.1,4.4c0,0.6-0.3,1.3-0.7,1.6c-2.6,2.1-5.4,4.1-8.1,6.1
		c-0.7,0.5-1.4,0.8-2.2,0.3c-0.8-0.4-1-1.2-1-2c0-6.5-0.1-13,0-19.5c0-1-0.3-1.3-1.3-1.3c-2.2,0-4.4,0-6.6,0c-2.1,0-2.8-0.7-2.8-2.8
		C30.3,84,30.3,81.8,30.3,79.7C30.3,79.7,30.3,79.7,30.3,79.7z M45,105.7c0.1,0.1,0.2,0.1,0.3,0.2c1.3-1,2.5-2,3.8-3.1
		c0.2-0.2,0.3-0.6,0.2-0.9c0-1.2-0.1-2.4-0.1-3.6c0-1.2,0.4-2.1,1.3-2.8c2.8-2.2,5.7-4.4,8.4-6.7c0.4-0.3,0.6-0.9,0.7-1.4
		c0.1-1.9,0-3.8,0-5.7c0-0.9-0.3-1.2-1.2-1.2c-2.9,0-5.9,0-8.8,0c-1,0-1.8-0.3-2.5-1c-1.4-1.5-2.9-2.9-4.4-4.3
		c-0.4-0.4-1.1-0.7-1.7-0.7c-1.9-0.1-3.8,0-5.7,0c-0.8,0-1.1,0.2-1.1,1c0,2.7,0.1,5.5,0,8.2c0,1,0.3,1.3,1.3,1.3c2.3,0,4.5,0,6.8,0
		c1.9,0,2.5,0.7,2.5,2.6c0,5.6,0,11.1,0,16.7C44.9,104.8,44.9,105.3,45,105.7z"/>
</g>
</svg>
